<mxfile host="app.diagrams.net" modified="2022-03-16T08:37:46.801Z" agent="5.0 (Windows NT 10.0; Win64; x64) AppleWebKit/537.36 (KHTML, like Gecko) Chrome/99.0.4844.51 Safari/537.36" etag="yd485ZUTh3k-F0io_VFa" version="17.1.3" type="github">
  <diagram id="R2lEEEUBdFMjLlhIrx00" name="Page-1">
    <mxGraphModel dx="782" dy="1255" grid="1" gridSize="10" guides="1" tooltips="1" connect="1" arrows="1" fold="1" page="1" pageScale="1" pageWidth="583" pageHeight="827" math="0" shadow="0" extFonts="Permanent Marker^https://fonts.googleapis.com/css?family=Permanent+Marker">
      <root>
        <mxCell id="0" />
        <mxCell id="1" parent="0" />
        <mxCell id="abUERGnJFec2dvyfxDvH-7" value="Klienci" style="rounded=0;whiteSpace=wrap;html=1;" parent="1" vertex="1">
          <mxGeometry x="240" y="-280" width="120" height="60" as="geometry" />
        </mxCell>
        <mxCell id="abUERGnJFec2dvyfxDvH-8" value="Miejscowosc" style="ellipse;whiteSpace=wrap;html=1;" parent="1" vertex="1">
          <mxGeometry x="255" y="-90" width="90" height="60" as="geometry" />
        </mxCell>
        <mxCell id="abUERGnJFec2dvyfxDvH-9" value="Ulica" style="ellipse;whiteSpace=wrap;html=1;" parent="1" vertex="1">
          <mxGeometry x="140" y="-120" width="90" height="60" as="geometry" />
        </mxCell>
        <mxCell id="abUERGnJFec2dvyfxDvH-10" value="Nazwa" style="ellipse;whiteSpace=wrap;html=1;" parent="1" vertex="1">
          <mxGeometry x="130" y="-370" width="90" height="60" as="geometry" />
        </mxCell>
        <mxCell id="abUERGnJFec2dvyfxDvH-11" value="&lt;u&gt;IDKlienta&lt;/u&gt;" style="ellipse;whiteSpace=wrap;html=1;" parent="1" vertex="1">
          <mxGeometry x="255" y="-390" width="90" height="60" as="geometry" />
        </mxCell>
        <mxCell id="abUERGnJFec2dvyfxDvH-12" value="Telefon" style="ellipse;whiteSpace=wrap;html=1;" parent="1" vertex="1">
          <mxGeometry x="380" y="-370" width="90" height="60" as="geometry" />
        </mxCell>
        <mxCell id="abUERGnJFec2dvyfxDvH-13" value="Kod" style="ellipse;whiteSpace=wrap;html=1;" parent="1" vertex="1">
          <mxGeometry x="370" y="-120" width="90" height="60" as="geometry" />
        </mxCell>
        <mxCell id="abUERGnJFec2dvyfxDvH-14" value="" style="endArrow=none;html=1;rounded=0;entryX=0;entryY=1;entryDx=0;entryDy=0;exitX=1;exitY=0;exitDx=0;exitDy=0;" parent="1" source="abUERGnJFec2dvyfxDvH-7" target="abUERGnJFec2dvyfxDvH-12" edge="1">
          <mxGeometry width="50" height="50" relative="1" as="geometry">
            <mxPoint x="280" y="-220" as="sourcePoint" />
            <mxPoint x="330" y="-270" as="targetPoint" />
          </mxGeometry>
        </mxCell>
        <mxCell id="abUERGnJFec2dvyfxDvH-15" value="" style="endArrow=none;html=1;rounded=0;entryX=0.5;entryY=1;entryDx=0;entryDy=0;exitX=0.5;exitY=0;exitDx=0;exitDy=0;" parent="1" source="abUERGnJFec2dvyfxDvH-7" target="abUERGnJFec2dvyfxDvH-11" edge="1">
          <mxGeometry width="50" height="50" relative="1" as="geometry">
            <mxPoint x="280" y="-220" as="sourcePoint" />
            <mxPoint x="330" y="-270" as="targetPoint" />
          </mxGeometry>
        </mxCell>
        <mxCell id="abUERGnJFec2dvyfxDvH-16" value="" style="endArrow=none;html=1;rounded=0;entryX=1;entryY=1;entryDx=0;entryDy=0;exitX=0;exitY=0;exitDx=0;exitDy=0;" parent="1" source="abUERGnJFec2dvyfxDvH-7" target="abUERGnJFec2dvyfxDvH-10" edge="1">
          <mxGeometry width="50" height="50" relative="1" as="geometry">
            <mxPoint x="280" y="-220" as="sourcePoint" />
            <mxPoint x="330" y="-270" as="targetPoint" />
          </mxGeometry>
        </mxCell>
        <mxCell id="abUERGnJFec2dvyfxDvH-17" value="" style="endArrow=none;html=1;rounded=0;entryX=0.051;entryY=0.749;entryDx=0;entryDy=0;entryPerimeter=0;" parent="1" source="abUERGnJFec2dvyfxDvH-9" target="abUERGnJFec2dvyfxDvH-29" edge="1">
          <mxGeometry width="50" height="50" relative="1" as="geometry">
            <mxPoint x="280" y="-220" as="sourcePoint" />
            <mxPoint x="330" y="-270" as="targetPoint" />
          </mxGeometry>
        </mxCell>
        <mxCell id="abUERGnJFec2dvyfxDvH-18" value="" style="endArrow=none;html=1;rounded=0;exitX=0.5;exitY=0;exitDx=0;exitDy=0;entryX=0.5;entryY=1;entryDx=0;entryDy=0;" parent="1" source="abUERGnJFec2dvyfxDvH-8" target="abUERGnJFec2dvyfxDvH-29" edge="1">
          <mxGeometry width="50" height="50" relative="1" as="geometry">
            <mxPoint x="280" y="-220" as="sourcePoint" />
            <mxPoint x="330" y="-270" as="targetPoint" />
          </mxGeometry>
        </mxCell>
        <mxCell id="abUERGnJFec2dvyfxDvH-19" value="" style="endArrow=none;html=1;rounded=0;entryX=0;entryY=0;entryDx=0;entryDy=0;exitX=0.957;exitY=0.716;exitDx=0;exitDy=0;exitPerimeter=0;" parent="1" source="abUERGnJFec2dvyfxDvH-29" target="abUERGnJFec2dvyfxDvH-13" edge="1">
          <mxGeometry width="50" height="50" relative="1" as="geometry">
            <mxPoint x="280" y="-220" as="sourcePoint" />
            <mxPoint x="330" y="-270" as="targetPoint" />
          </mxGeometry>
        </mxCell>
        <mxCell id="abUERGnJFec2dvyfxDvH-22" value="składa się z" style="rhombus;whiteSpace=wrap;html=1;" parent="1" vertex="1">
          <mxGeometry x="440" y="450" width="130" height="80" as="geometry" />
        </mxCell>
        <mxCell id="abUERGnJFec2dvyfxDvH-23" value="na" style="rhombus;whiteSpace=wrap;html=1;" parent="1" vertex="1">
          <mxGeometry x="1070" y="-290" width="130" height="80" as="geometry" />
        </mxCell>
        <mxCell id="abUERGnJFec2dvyfxDvH-24" value="wypelnione" style="rhombus;whiteSpace=wrap;html=1;" parent="1" vertex="1">
          <mxGeometry x="1036" y="450" width="130" height="80" as="geometry" />
        </mxCell>
        <mxCell id="abUERGnJFec2dvyfxDvH-25" value="" style="endArrow=classic;html=1;rounded=0;entryX=1;entryY=0.5;entryDx=0;entryDy=0;exitX=0;exitY=0.5;exitDx=0;exitDy=0;" parent="1" source="abUERGnJFec2dvyfxDvH-20" target="abUERGnJFec2dvyfxDvH-7" edge="1">
          <mxGeometry width="50" height="50" relative="1" as="geometry">
            <mxPoint x="400" y="-240" as="sourcePoint" />
            <mxPoint x="450" y="-290" as="targetPoint" />
          </mxGeometry>
        </mxCell>
        <mxCell id="abUERGnJFec2dvyfxDvH-26" value="" style="endArrow=none;html=1;rounded=0;entryX=0;entryY=0.5;entryDx=0;entryDy=0;startArrow=none;" parent="1" source="abUERGnJFec2dvyfxDvH-20" target="abUERGnJFec2dvyfxDvH-27" edge="1">
          <mxGeometry width="50" height="50" relative="1" as="geometry">
            <mxPoint x="610" y="-250" as="sourcePoint" />
            <mxPoint x="750" y="-250" as="targetPoint" />
            <Array as="points" />
          </mxGeometry>
        </mxCell>
        <mxCell id="abUERGnJFec2dvyfxDvH-27" value="Zamówienia" style="rounded=0;whiteSpace=wrap;html=1;" parent="1" vertex="1">
          <mxGeometry x="845" y="-280" width="120" height="60" as="geometry" />
        </mxCell>
        <mxCell id="abUERGnJFec2dvyfxDvH-29" value="Adres" style="ellipse;whiteSpace=wrap;html=1;" parent="1" vertex="1">
          <mxGeometry x="255" y="-190" width="90" height="60" as="geometry" />
        </mxCell>
        <mxCell id="abUERGnJFec2dvyfxDvH-30" value="" style="endArrow=none;html=1;rounded=0;entryX=0.5;entryY=1;entryDx=0;entryDy=0;exitX=0.5;exitY=0;exitDx=0;exitDy=0;" parent="1" source="abUERGnJFec2dvyfxDvH-29" target="abUERGnJFec2dvyfxDvH-7" edge="1">
          <mxGeometry width="50" height="50" relative="1" as="geometry">
            <mxPoint x="290" y="-180" as="sourcePoint" />
            <mxPoint x="340" y="-230" as="targetPoint" />
          </mxGeometry>
        </mxCell>
        <mxCell id="abUERGnJFec2dvyfxDvH-20" value="składają" style="rhombus;whiteSpace=wrap;html=1;" parent="1" vertex="1">
          <mxGeometry x="540" y="-290" width="130" height="80" as="geometry" />
        </mxCell>
        <mxCell id="abUERGnJFec2dvyfxDvH-33" value="DataRealizacji" style="ellipse;whiteSpace=wrap;html=1;" parent="1" vertex="1">
          <mxGeometry x="860" y="-170" width="90" height="60" as="geometry" />
        </mxCell>
        <mxCell id="abUERGnJFec2dvyfxDvH-34" value="&lt;u&gt;IDZamowienia&lt;/u&gt;" style="ellipse;whiteSpace=wrap;html=1;" parent="1" vertex="1">
          <mxGeometry x="930" y="-390" width="90" height="60" as="geometry" />
        </mxCell>
        <mxCell id="abUERGnJFec2dvyfxDvH-35" value="IDKlienta" style="ellipse;whiteSpace=wrap;html=1;" parent="1" vertex="1">
          <mxGeometry x="800" y="-390" width="90" height="60" as="geometry" />
        </mxCell>
        <mxCell id="abUERGnJFec2dvyfxDvH-36" value="" style="endArrow=none;html=1;rounded=0;entryX=0.5;entryY=1;entryDx=0;entryDy=0;exitX=0.25;exitY=0;exitDx=0;exitDy=0;" parent="1" source="abUERGnJFec2dvyfxDvH-27" target="abUERGnJFec2dvyfxDvH-35" edge="1">
          <mxGeometry width="50" height="50" relative="1" as="geometry">
            <mxPoint x="500" y="-170" as="sourcePoint" />
            <mxPoint x="550" y="-220" as="targetPoint" />
          </mxGeometry>
        </mxCell>
        <mxCell id="abUERGnJFec2dvyfxDvH-37" value="" style="endArrow=none;html=1;rounded=0;entryX=0.5;entryY=1;entryDx=0;entryDy=0;exitX=0.75;exitY=0;exitDx=0;exitDy=0;" parent="1" source="abUERGnJFec2dvyfxDvH-27" target="abUERGnJFec2dvyfxDvH-34" edge="1">
          <mxGeometry width="50" height="50" relative="1" as="geometry">
            <mxPoint x="910" y="-270" as="sourcePoint" />
            <mxPoint x="960" y="-320" as="targetPoint" />
          </mxGeometry>
        </mxCell>
        <mxCell id="abUERGnJFec2dvyfxDvH-38" value="" style="endArrow=none;html=1;rounded=0;exitX=0.5;exitY=0;exitDx=0;exitDy=0;entryX=0.5;entryY=1;entryDx=0;entryDy=0;" parent="1" source="abUERGnJFec2dvyfxDvH-33" target="abUERGnJFec2dvyfxDvH-27" edge="1">
          <mxGeometry width="50" height="50" relative="1" as="geometry">
            <mxPoint x="500" y="-170" as="sourcePoint" />
            <mxPoint x="550" y="-220" as="targetPoint" />
          </mxGeometry>
        </mxCell>
        <mxCell id="abUERGnJFec2dvyfxDvH-39" value="" style="endArrow=classic;html=1;rounded=0;entryX=1;entryY=0.5;entryDx=0;entryDy=0;exitX=0;exitY=0.5;exitDx=0;exitDy=0;" parent="1" source="abUERGnJFec2dvyfxDvH-23" target="abUERGnJFec2dvyfxDvH-27" edge="1">
          <mxGeometry width="50" height="50" relative="1" as="geometry">
            <mxPoint x="680" y="-170" as="sourcePoint" />
            <mxPoint x="730" y="-220" as="targetPoint" />
          </mxGeometry>
        </mxCell>
        <mxCell id="abUERGnJFec2dvyfxDvH-40" value="" style="endArrow=none;html=1;rounded=0;entryX=1;entryY=0.5;entryDx=0;entryDy=0;exitX=0;exitY=0.5;exitDx=0;exitDy=0;" parent="1" source="8hP7hutCpW1YsfkcWPiX-58" target="abUERGnJFec2dvyfxDvH-23" edge="1">
          <mxGeometry width="50" height="50" relative="1" as="geometry">
            <mxPoint x="680" y="-170" as="sourcePoint" />
            <mxPoint x="730" y="-220" as="targetPoint" />
          </mxGeometry>
        </mxCell>
        <mxCell id="8hP7hutCpW1YsfkcWPiX-1" value="składają się z" style="rhombus;whiteSpace=wrap;html=1;" parent="1" vertex="1">
          <mxGeometry x="1315" y="80" width="130" height="80" as="geometry" />
        </mxCell>
        <mxCell id="8hP7hutCpW1YsfkcWPiX-3" value="IDKlienta" style="ellipse;whiteSpace=wrap;html=1;" parent="1" vertex="1">
          <mxGeometry x="1335" y="-390" width="90" height="60" as="geometry" />
        </mxCell>
        <mxCell id="8hP7hutCpW1YsfkcWPiX-4" value="IDPudelka" style="ellipse;whiteSpace=wrap;html=1;" parent="1" vertex="1">
          <mxGeometry x="1500" y="-390" width="90" height="60" as="geometry" />
        </mxCell>
        <mxCell id="8hP7hutCpW1YsfkcWPiX-5" value="Sztuk" style="ellipse;whiteSpace=wrap;html=1;dashed=1;" parent="1" vertex="1">
          <mxGeometry x="1500" y="-280" width="90" height="60" as="geometry" />
        </mxCell>
        <mxCell id="8hP7hutCpW1YsfkcWPiX-6" value="" style="endArrow=none;html=1;rounded=0;entryX=0.5;entryY=1;entryDx=0;entryDy=0;exitX=0.5;exitY=0;exitDx=0;exitDy=0;" parent="1" source="8hP7hutCpW1YsfkcWPiX-58" target="8hP7hutCpW1YsfkcWPiX-3" edge="1">
          <mxGeometry width="50" height="50" relative="1" as="geometry">
            <mxPoint x="1240" y="-140" as="sourcePoint" />
            <mxPoint x="1290" y="-190" as="targetPoint" />
          </mxGeometry>
        </mxCell>
        <mxCell id="8hP7hutCpW1YsfkcWPiX-7" value="" style="endArrow=none;html=1;rounded=0;entryX=0;entryY=1;entryDx=0;entryDy=0;exitX=1;exitY=0;exitDx=0;exitDy=0;" parent="1" source="8hP7hutCpW1YsfkcWPiX-58" target="8hP7hutCpW1YsfkcWPiX-4" edge="1">
          <mxGeometry width="50" height="50" relative="1" as="geometry">
            <mxPoint x="1240" y="-140" as="sourcePoint" />
            <mxPoint x="1290" y="-190" as="targetPoint" />
          </mxGeometry>
        </mxCell>
        <mxCell id="8hP7hutCpW1YsfkcWPiX-8" value="" style="endArrow=none;html=1;rounded=0;entryX=0;entryY=0.5;entryDx=0;entryDy=0;exitX=1;exitY=0.5;exitDx=0;exitDy=0;" parent="1" source="8hP7hutCpW1YsfkcWPiX-58" target="8hP7hutCpW1YsfkcWPiX-5" edge="1">
          <mxGeometry width="50" height="50" relative="1" as="geometry">
            <mxPoint x="1240" y="-140" as="sourcePoint" />
            <mxPoint x="1290" y="-190" as="targetPoint" />
          </mxGeometry>
        </mxCell>
        <mxCell id="8hP7hutCpW1YsfkcWPiX-9" value="" style="endArrow=none;html=1;rounded=0;entryX=0.5;entryY=1;entryDx=0;entryDy=0;exitX=0.5;exitY=0;exitDx=0;exitDy=0;" parent="1" source="8hP7hutCpW1YsfkcWPiX-1" target="abUERGnJFec2dvyfxDvH-41" edge="1">
          <mxGeometry width="50" height="50" relative="1" as="geometry">
            <mxPoint x="870" y="-140" as="sourcePoint" />
            <mxPoint x="920" y="-190" as="targetPoint" />
          </mxGeometry>
        </mxCell>
        <mxCell id="8hP7hutCpW1YsfkcWPiX-11" value="" style="endArrow=classic;html=1;rounded=0;entryX=0.5;entryY=0;entryDx=0;entryDy=0;exitX=0.5;exitY=1;exitDx=0;exitDy=0;" parent="1" source="8hP7hutCpW1YsfkcWPiX-1" target="8hP7hutCpW1YsfkcWPiX-10" edge="1">
          <mxGeometry width="50" height="50" relative="1" as="geometry">
            <mxPoint x="870" y="140" as="sourcePoint" />
            <mxPoint x="920" y="90" as="targetPoint" />
          </mxGeometry>
        </mxCell>
        <mxCell id="8hP7hutCpW1YsfkcWPiX-13" value="Stan" style="ellipse;whiteSpace=wrap;html=1;dashed=1;" parent="1" vertex="1">
          <mxGeometry x="1200" y="560" width="90" height="60" as="geometry" />
        </mxCell>
        <mxCell id="8hP7hutCpW1YsfkcWPiX-14" value="Cena" style="ellipse;whiteSpace=wrap;html=1;" parent="1" vertex="1">
          <mxGeometry x="1335" y="570" width="90" height="60" as="geometry" />
        </mxCell>
        <mxCell id="8hP7hutCpW1YsfkcWPiX-15" value="&lt;u&gt;IDPudelka&lt;/u&gt;" style="ellipse;whiteSpace=wrap;html=1;" parent="1" vertex="1">
          <mxGeometry x="1480" y="354" width="90" height="56" as="geometry" />
        </mxCell>
        <mxCell id="8hP7hutCpW1YsfkcWPiX-16" value="Opis" style="ellipse;whiteSpace=wrap;html=1;" parent="1" vertex="1">
          <mxGeometry x="1480" y="540" width="90" height="60" as="geometry" />
        </mxCell>
        <mxCell id="8hP7hutCpW1YsfkcWPiX-17" value="Nazwa" style="ellipse;whiteSpace=wrap;html=1;" parent="1" vertex="1">
          <mxGeometry x="1520" y="460" width="90" height="60" as="geometry" />
        </mxCell>
        <mxCell id="8hP7hutCpW1YsfkcWPiX-18" value="" style="endArrow=none;html=1;rounded=0;entryX=0;entryY=1;entryDx=0;entryDy=0;exitX=1;exitY=0;exitDx=0;exitDy=0;" parent="1" source="8hP7hutCpW1YsfkcWPiX-13" target="8hP7hutCpW1YsfkcWPiX-10" edge="1">
          <mxGeometry width="50" height="50" relative="1" as="geometry">
            <mxPoint x="840" y="310" as="sourcePoint" />
            <mxPoint x="900" y="250" as="targetPoint" />
          </mxGeometry>
        </mxCell>
        <mxCell id="8hP7hutCpW1YsfkcWPiX-19" value="" style="endArrow=none;html=1;rounded=0;entryX=0;entryY=1;entryDx=0;entryDy=0;exitX=1;exitY=0;exitDx=0;exitDy=0;" parent="1" source="8hP7hutCpW1YsfkcWPiX-10" target="8hP7hutCpW1YsfkcWPiX-15" edge="1">
          <mxGeometry width="50" height="50" relative="1" as="geometry">
            <mxPoint x="840" y="310" as="sourcePoint" />
            <mxPoint x="890" y="260" as="targetPoint" />
          </mxGeometry>
        </mxCell>
        <mxCell id="8hP7hutCpW1YsfkcWPiX-20" value="" style="endArrow=none;html=1;rounded=0;entryX=0.5;entryY=0;entryDx=0;entryDy=0;exitX=0.5;exitY=1;exitDx=0;exitDy=0;" parent="1" source="8hP7hutCpW1YsfkcWPiX-10" target="8hP7hutCpW1YsfkcWPiX-14" edge="1">
          <mxGeometry width="50" height="50" relative="1" as="geometry">
            <mxPoint x="840" y="310" as="sourcePoint" />
            <mxPoint x="890" y="260" as="targetPoint" />
          </mxGeometry>
        </mxCell>
        <mxCell id="8hP7hutCpW1YsfkcWPiX-21" value="" style="endArrow=none;html=1;rounded=0;entryX=0;entryY=0;entryDx=0;entryDy=0;exitX=1;exitY=1;exitDx=0;exitDy=0;" parent="1" source="8hP7hutCpW1YsfkcWPiX-10" target="8hP7hutCpW1YsfkcWPiX-16" edge="1">
          <mxGeometry width="50" height="50" relative="1" as="geometry">
            <mxPoint x="840" y="310" as="sourcePoint" />
            <mxPoint x="890" y="260" as="targetPoint" />
          </mxGeometry>
        </mxCell>
        <mxCell id="8hP7hutCpW1YsfkcWPiX-22" value="" style="endArrow=none;html=1;rounded=0;entryX=0;entryY=0.5;entryDx=0;entryDy=0;exitX=1;exitY=0.5;exitDx=0;exitDy=0;" parent="1" source="8hP7hutCpW1YsfkcWPiX-10" target="8hP7hutCpW1YsfkcWPiX-17" edge="1">
          <mxGeometry width="50" height="50" relative="1" as="geometry">
            <mxPoint x="840" y="310" as="sourcePoint" />
            <mxPoint x="890" y="260" as="targetPoint" />
          </mxGeometry>
        </mxCell>
        <mxCell id="8hP7hutCpW1YsfkcWPiX-24" value="Czekoladki" style="rounded=0;whiteSpace=wrap;html=1;" parent="1" vertex="1">
          <mxGeometry x="172" y="460" width="120" height="60" as="geometry" />
        </mxCell>
        <mxCell id="8hP7hutCpW1YsfkcWPiX-26" value="" style="endArrow=none;html=1;rounded=0;entryX=0;entryY=0.5;entryDx=0;entryDy=0;exitX=1;exitY=0.5;exitDx=0;exitDy=0;" parent="1" source="8hP7hutCpW1YsfkcWPiX-61" target="abUERGnJFec2dvyfxDvH-24" edge="1">
          <mxGeometry width="50" height="50" relative="1" as="geometry">
            <mxPoint x="840" y="310" as="sourcePoint" />
            <mxPoint x="890" y="260" as="targetPoint" />
          </mxGeometry>
        </mxCell>
        <mxCell id="8hP7hutCpW1YsfkcWPiX-27" value="Sztuk" style="ellipse;whiteSpace=wrap;html=1;" parent="1" vertex="1">
          <mxGeometry x="770" y="294" width="90" height="60" as="geometry" />
        </mxCell>
        <mxCell id="8hP7hutCpW1YsfkcWPiX-28" value="IDCzekoladki" style="ellipse;whiteSpace=wrap;html=1;" parent="1" vertex="1">
          <mxGeometry x="850" y="600" width="90" height="60" as="geometry" />
        </mxCell>
        <mxCell id="8hP7hutCpW1YsfkcWPiX-29" value="IDPudelka" style="ellipse;whiteSpace=wrap;html=1;" parent="1" vertex="1">
          <mxGeometry x="710" y="600" width="90" height="60" as="geometry" />
        </mxCell>
        <mxCell id="8hP7hutCpW1YsfkcWPiX-30" value="" style="endArrow=none;html=1;rounded=0;exitX=0.5;exitY=0;exitDx=0;exitDy=0;entryX=0.5;entryY=1;entryDx=0;entryDy=0;" parent="1" source="8hP7hutCpW1YsfkcWPiX-61" target="8hP7hutCpW1YsfkcWPiX-27" edge="1">
          <mxGeometry width="50" height="50" relative="1" as="geometry">
            <mxPoint x="840" y="310" as="sourcePoint" />
            <mxPoint x="890" y="260" as="targetPoint" />
          </mxGeometry>
        </mxCell>
        <mxCell id="8hP7hutCpW1YsfkcWPiX-31" value="" style="endArrow=none;html=1;rounded=0;entryX=0.25;entryY=1;entryDx=0;entryDy=0;exitX=0.5;exitY=0;exitDx=0;exitDy=0;" parent="1" source="8hP7hutCpW1YsfkcWPiX-29" target="8hP7hutCpW1YsfkcWPiX-61" edge="1">
          <mxGeometry width="50" height="50" relative="1" as="geometry">
            <mxPoint x="840" y="310" as="sourcePoint" />
            <mxPoint x="890" y="260" as="targetPoint" />
          </mxGeometry>
        </mxCell>
        <mxCell id="8hP7hutCpW1YsfkcWPiX-32" value="" style="endArrow=none;html=1;rounded=0;exitX=0.5;exitY=0;exitDx=0;exitDy=0;entryX=0.75;entryY=1;entryDx=0;entryDy=0;" parent="1" source="8hP7hutCpW1YsfkcWPiX-28" target="8hP7hutCpW1YsfkcWPiX-61" edge="1">
          <mxGeometry width="50" height="50" relative="1" as="geometry">
            <mxPoint x="840" y="310" as="sourcePoint" />
            <mxPoint x="890" y="260" as="targetPoint" />
          </mxGeometry>
        </mxCell>
        <mxCell id="8hP7hutCpW1YsfkcWPiX-33" value="" style="endArrow=none;html=1;rounded=0;exitX=1;exitY=0.5;exitDx=0;exitDy=0;entryX=0;entryY=0.5;entryDx=0;entryDy=0;" parent="1" source="abUERGnJFec2dvyfxDvH-22" target="8hP7hutCpW1YsfkcWPiX-61" edge="1">
          <mxGeometry width="50" height="50" relative="1" as="geometry">
            <mxPoint x="840" y="310" as="sourcePoint" />
            <mxPoint x="890" y="260" as="targetPoint" />
          </mxGeometry>
        </mxCell>
        <mxCell id="8hP7hutCpW1YsfkcWPiX-35" value="" style="endArrow=classic;html=1;rounded=0;entryX=1;entryY=0.5;entryDx=0;entryDy=0;exitX=0;exitY=0.5;exitDx=0;exitDy=0;" parent="1" source="abUERGnJFec2dvyfxDvH-22" target="8hP7hutCpW1YsfkcWPiX-24" edge="1">
          <mxGeometry width="50" height="50" relative="1" as="geometry">
            <mxPoint x="840" y="310" as="sourcePoint" />
            <mxPoint x="890" y="260" as="targetPoint" />
          </mxGeometry>
        </mxCell>
        <mxCell id="8hP7hutCpW1YsfkcWPiX-36" value="Nazwa" style="ellipse;whiteSpace=wrap;html=1;" parent="1" vertex="1">
          <mxGeometry x="60" y="590" width="90" height="60" as="geometry" />
        </mxCell>
        <mxCell id="8hP7hutCpW1YsfkcWPiX-37" value="Opis" style="ellipse;whiteSpace=wrap;html=1;" parent="1" vertex="1">
          <mxGeometry x="187" y="610" width="90" height="60" as="geometry" />
        </mxCell>
        <mxCell id="8hP7hutCpW1YsfkcWPiX-38" value="Koszt" style="ellipse;whiteSpace=wrap;html=1;dashed=1;" parent="1" vertex="1">
          <mxGeometry x="310" y="570" width="90" height="60" as="geometry" />
        </mxCell>
        <mxCell id="8hP7hutCpW1YsfkcWPiX-39" value="Nadzienie" style="ellipse;whiteSpace=wrap;html=1;" parent="1" vertex="1">
          <mxGeometry x="310" y="240" width="90" height="60" as="geometry" />
        </mxCell>
        <mxCell id="8hP7hutCpW1YsfkcWPiX-40" value="Orzech" style="ellipse;whiteSpace=wrap;html=1;" parent="1" vertex="1">
          <mxGeometry x="187" y="180" width="90" height="60" as="geometry" />
        </mxCell>
        <mxCell id="8hP7hutCpW1YsfkcWPiX-41" value="Czekolada" style="ellipse;whiteSpace=wrap;html=1;" parent="1" vertex="1">
          <mxGeometry x="70" y="240" width="90" height="60" as="geometry" />
        </mxCell>
        <mxCell id="8hP7hutCpW1YsfkcWPiX-42" value="Skład" style="ellipse;whiteSpace=wrap;html=1;" parent="1" vertex="1">
          <mxGeometry x="187" y="340" width="90" height="60" as="geometry" />
        </mxCell>
        <mxCell id="8hP7hutCpW1YsfkcWPiX-43" value="" style="endArrow=none;html=1;rounded=0;exitX=1;exitY=0;exitDx=0;exitDy=0;entryX=0;entryY=1;entryDx=0;entryDy=0;" parent="1" source="8hP7hutCpW1YsfkcWPiX-42" target="8hP7hutCpW1YsfkcWPiX-39" edge="1">
          <mxGeometry width="50" height="50" relative="1" as="geometry">
            <mxPoint x="840" y="30" as="sourcePoint" />
            <mxPoint x="890" y="-20" as="targetPoint" />
          </mxGeometry>
        </mxCell>
        <mxCell id="8hP7hutCpW1YsfkcWPiX-44" value="" style="endArrow=none;html=1;rounded=0;exitX=0.5;exitY=0;exitDx=0;exitDy=0;entryX=0.5;entryY=1;entryDx=0;entryDy=0;" parent="1" source="8hP7hutCpW1YsfkcWPiX-42" target="8hP7hutCpW1YsfkcWPiX-40" edge="1">
          <mxGeometry width="50" height="50" relative="1" as="geometry">
            <mxPoint x="273.8198051533741" y="358.7867965644168" as="sourcePoint" />
            <mxPoint x="333.18019484658544" y="301.21320343561" as="targetPoint" />
          </mxGeometry>
        </mxCell>
        <mxCell id="8hP7hutCpW1YsfkcWPiX-45" value="" style="endArrow=none;html=1;rounded=0;exitX=0;exitY=0;exitDx=0;exitDy=0;entryX=1;entryY=1;entryDx=0;entryDy=0;" parent="1" source="8hP7hutCpW1YsfkcWPiX-42" target="8hP7hutCpW1YsfkcWPiX-41" edge="1">
          <mxGeometry width="50" height="50" relative="1" as="geometry">
            <mxPoint x="283.8198051533741" y="368.7867965644168" as="sourcePoint" />
            <mxPoint x="343.18019484658544" y="311.21320343561" as="targetPoint" />
          </mxGeometry>
        </mxCell>
        <mxCell id="8hP7hutCpW1YsfkcWPiX-46" value="" style="endArrow=none;html=1;rounded=0;exitX=0.5;exitY=0;exitDx=0;exitDy=0;entryX=0.5;entryY=1;entryDx=0;entryDy=0;" parent="1" source="8hP7hutCpW1YsfkcWPiX-24" target="8hP7hutCpW1YsfkcWPiX-42" edge="1">
          <mxGeometry width="50" height="50" relative="1" as="geometry">
            <mxPoint x="293.8198051533741" y="378.7867965644168" as="sourcePoint" />
            <mxPoint x="353.18019484658544" y="321.21320343561" as="targetPoint" />
          </mxGeometry>
        </mxCell>
        <mxCell id="8hP7hutCpW1YsfkcWPiX-48" value="Masa" style="ellipse;whiteSpace=wrap;html=1;" parent="1" vertex="1">
          <mxGeometry x="60" y="380" width="90" height="60" as="geometry" />
        </mxCell>
        <mxCell id="8hP7hutCpW1YsfkcWPiX-49" value="IDCzekoladki" style="ellipse;whiteSpace=wrap;html=1;" parent="1" vertex="1">
          <mxGeometry x="20" y="490" width="90" height="60" as="geometry" />
        </mxCell>
        <mxCell id="8hP7hutCpW1YsfkcWPiX-50" value="" style="endArrow=none;html=1;rounded=0;entryX=1;entryY=1;entryDx=0;entryDy=0;exitX=0;exitY=0;exitDx=0;exitDy=0;" parent="1" source="8hP7hutCpW1YsfkcWPiX-24" target="8hP7hutCpW1YsfkcWPiX-48" edge="1">
          <mxGeometry width="50" height="50" relative="1" as="geometry">
            <mxPoint x="170" y="460" as="sourcePoint" />
            <mxPoint x="890" y="260" as="targetPoint" />
          </mxGeometry>
        </mxCell>
        <mxCell id="8hP7hutCpW1YsfkcWPiX-53" value="" style="endArrow=none;html=1;rounded=0;exitX=0;exitY=0.75;exitDx=0;exitDy=0;entryX=0.97;entryY=0.256;entryDx=0;entryDy=0;entryPerimeter=0;" parent="1" source="8hP7hutCpW1YsfkcWPiX-24" target="8hP7hutCpW1YsfkcWPiX-49" edge="1">
          <mxGeometry width="50" height="50" relative="1" as="geometry">
            <mxPoint x="182" y="485" as="sourcePoint" />
            <mxPoint x="126.819805153385" y="461.21320343559" as="targetPoint" />
          </mxGeometry>
        </mxCell>
        <mxCell id="8hP7hutCpW1YsfkcWPiX-54" value="" style="endArrow=none;html=1;rounded=0;exitX=0.25;exitY=1;exitDx=0;exitDy=0;entryX=1;entryY=0;entryDx=0;entryDy=0;" parent="1" source="8hP7hutCpW1YsfkcWPiX-24" target="8hP7hutCpW1YsfkcWPiX-36" edge="1">
          <mxGeometry width="50" height="50" relative="1" as="geometry">
            <mxPoint x="192" y="495" as="sourcePoint" />
            <mxPoint x="136.819805153385" y="471.21320343559" as="targetPoint" />
          </mxGeometry>
        </mxCell>
        <mxCell id="8hP7hutCpW1YsfkcWPiX-55" value="" style="endArrow=none;html=1;rounded=0;entryX=0.5;entryY=0;entryDx=0;entryDy=0;" parent="1" target="8hP7hutCpW1YsfkcWPiX-37" edge="1">
          <mxGeometry width="50" height="50" relative="1" as="geometry">
            <mxPoint x="230" y="520" as="sourcePoint" />
            <mxPoint x="146.819805153385" y="481.21320343559" as="targetPoint" />
          </mxGeometry>
        </mxCell>
        <mxCell id="8hP7hutCpW1YsfkcWPiX-56" value="" style="endArrow=none;html=1;rounded=0;exitX=0.75;exitY=1;exitDx=0;exitDy=0;entryX=0;entryY=0;entryDx=0;entryDy=0;" parent="1" source="8hP7hutCpW1YsfkcWPiX-24" target="8hP7hutCpW1YsfkcWPiX-38" edge="1">
          <mxGeometry width="50" height="50" relative="1" as="geometry">
            <mxPoint x="212" y="515" as="sourcePoint" />
            <mxPoint x="156.819805153385" y="491.21320343559" as="targetPoint" />
          </mxGeometry>
        </mxCell>
        <mxCell id="8hP7hutCpW1YsfkcWPiX-58" value="" style="rounded=0;whiteSpace=wrap;html=1;" parent="1" vertex="1">
          <mxGeometry x="1310" y="-290" width="140" height="80" as="geometry" />
        </mxCell>
        <mxCell id="8hP7hutCpW1YsfkcWPiX-10" value="Pudelka" style="rounded=0;whiteSpace=wrap;html=1;" parent="1" vertex="1">
          <mxGeometry x="1320" y="460" width="120" height="60" as="geometry" />
        </mxCell>
        <mxCell id="abUERGnJFec2dvyfxDvH-41" value="Artykuly" style="rounded=0;whiteSpace=wrap;html=1;" parent="1" vertex="1">
          <mxGeometry x="1320" y="-280" width="120" height="60" as="geometry" />
        </mxCell>
        <mxCell id="8hP7hutCpW1YsfkcWPiX-61" value="" style="rounded=0;whiteSpace=wrap;html=1;" parent="1" vertex="1">
          <mxGeometry x="745" y="450" width="140" height="80" as="geometry" />
        </mxCell>
        <mxCell id="8hP7hutCpW1YsfkcWPiX-23" value="Zawartosc" style="rounded=0;whiteSpace=wrap;html=1;" parent="1" vertex="1">
          <mxGeometry x="755" y="460" width="120" height="60" as="geometry" />
        </mxCell>
        <mxCell id="8hP7hutCpW1YsfkcWPiX-62" value="" style="endArrow=classic;html=1;rounded=0;entryX=0;entryY=0.5;entryDx=0;entryDy=0;exitX=1;exitY=0.5;exitDx=0;exitDy=0;" parent="1" source="abUERGnJFec2dvyfxDvH-24" target="8hP7hutCpW1YsfkcWPiX-10" edge="1">
          <mxGeometry width="50" height="50" relative="1" as="geometry">
            <mxPoint x="1120" y="600" as="sourcePoint" />
            <mxPoint x="1170" y="550" as="targetPoint" />
          </mxGeometry>
        </mxCell>
      </root>
    </mxGraphModel>
  </diagram>
</mxfile>
